<mxfile host="65bd71144e">
    <diagram id="vWlAHo8iZM8PoyifKCB5" name="第 1 页">
        <mxGraphModel dx="1005" dy="614" grid="1" gridSize="10" guides="1" tooltips="1" connect="1" arrows="1" fold="1" page="1" pageScale="1" pageWidth="827" pageHeight="1169" math="0" shadow="0">
            <root>
                <mxCell id="0"/>
                <mxCell id="1" parent="0"/>
                <mxCell id="2" value="" style="rounded=0;whiteSpace=wrap;html=1;" vertex="1" parent="1">
                    <mxGeometry x="100" y="110" width="290" height="510" as="geometry"/>
                </mxCell>
                <mxCell id="3" value="CurrentThread&lt;br&gt;" style="text;html=1;strokeColor=none;fillColor=none;align=center;verticalAlign=middle;whiteSpace=wrap;rounded=0;" vertex="1" parent="1">
                    <mxGeometry x="225" y="130" width="40" height="20" as="geometry"/>
                </mxCell>
                <mxCell id="5" value="int&amp;nbsp;t_cachedTid" style="rounded=0;whiteSpace=wrap;html=1;" vertex="1" parent="1">
                    <mxGeometry x="170" y="460" width="140" height="30" as="geometry"/>
                </mxCell>
                <mxCell id="6" value="char t_tidString[32]" style="rounded=0;whiteSpace=wrap;html=1;" vertex="1" parent="1">
                    <mxGeometry x="170" y="490" width="140" height="30" as="geometry"/>
                </mxCell>
                <mxCell id="7" value="&amp;nbsp;int t_tidStringLength" style="rounded=0;whiteSpace=wrap;html=1;" vertex="1" parent="1">
                    <mxGeometry x="170" y="520" width="140" height="30" as="geometry"/>
                </mxCell>
                <mxCell id="8" value="const char* threadName" style="rounded=0;whiteSpace=wrap;html=1;" vertex="1" parent="1">
                    <mxGeometry x="170" y="550" width="140" height="30" as="geometry"/>
                </mxCell>
                <mxCell id="9" value="void cacheTid()" style="rounded=0;whiteSpace=wrap;html=1;" vertex="1" parent="1">
                    <mxGeometry x="147.5" y="170" width="185" height="30" as="geometry"/>
                </mxCell>
                <mxCell id="10" value="inline int tid()" style="rounded=0;whiteSpace=wrap;html=1;" vertex="1" parent="1">
                    <mxGeometry x="147.5" y="200" width="185" height="30" as="geometry"/>
                </mxCell>
                <mxCell id="13" value="inline const char* tidString()" style="rounded=0;whiteSpace=wrap;html=1;" vertex="1" parent="1">
                    <mxGeometry x="147.5" y="230" width="185" height="30" as="geometry"/>
                </mxCell>
                <mxCell id="22" style="edgeStyle=orthogonalEdgeStyle;rounded=0;orthogonalLoop=1;jettySize=auto;html=1;exitX=0;exitY=0.5;exitDx=0;exitDy=0;entryX=0;entryY=0.5;entryDx=0;entryDy=0;" edge="1" parent="1" source="14" target="7">
                    <mxGeometry relative="1" as="geometry"/>
                </mxCell>
                <mxCell id="14" value="inline int tidStringLength()" style="rounded=0;whiteSpace=wrap;html=1;" vertex="1" parent="1">
                    <mxGeometry x="147.5" y="260" width="185" height="30" as="geometry"/>
                </mxCell>
                <mxCell id="16" value="inline const char* name()" style="rounded=0;whiteSpace=wrap;html=1;" vertex="1" parent="1">
                    <mxGeometry x="147.5" y="290" width="185" height="30" as="geometry"/>
                </mxCell>
                <mxCell id="18" value="bool isMainThread()" style="rounded=0;whiteSpace=wrap;html=1;" vertex="1" parent="1">
                    <mxGeometry x="147.5" y="320" width="185" height="30" as="geometry"/>
                </mxCell>
                <mxCell id="19" value="void&amp;nbsp; sleepUsec(int64_t usec)" style="rounded=0;whiteSpace=wrap;html=1;" vertex="1" parent="1">
                    <mxGeometry x="147.5" y="350" width="185" height="30" as="geometry"/>
                </mxCell>
                <mxCell id="21" value="String stackTrace(bool demangle)" style="rounded=0;whiteSpace=wrap;html=1;" vertex="1" parent="1">
                    <mxGeometry x="147.5" y="380" width="185" height="30" as="geometry"/>
                </mxCell>
            </root>
        </mxGraphModel>
    </diagram>
</mxfile>